# MagicaVoxel @ Ephtracy

# group
o 

# material
mtllib FramePortal.mtl
usemtl palette

# normals
vn -1 0 0
vn 1 0 0
vn 0 0 1
vn 0 0 -1
vn 0 -1 0
vn 0 1 0

# texcoords
vt 0.306641 0.5
vt 0.845703 0.5
vt 0.853516 0.5
vt 0.857422 0.5
vt 0.869141 0.5
vt 0.939453 0.5

# verts
v 0 2 -0.1
v 0 2 -0.2
v 0 2.1 0
v 0 2.1 -0.1
v 0 2.1 -0.2
v 0 2.1 -0.3
v 0 2.2 0
v 0 2.2 -0.1
v 0 2.2 -0.2
v 0 2.2 -0.3
v 0 2.4 0
v 0 2.4 -0.1
v 0 2.4 -0.2
v 0 2.4 -0.3
v 0 2.6 0
v 0 2.6 -0.1
v 0 2.6 -0.2
v 0 2.6 -0.3
v 0 2.8 0
v 0 2.8 -0.1
v 0 2.8 -0.2
v 0 2.8 -0.3
v 0 2.9 0
v 0 2.9 -0.1
v 0 2.9 -0.2
v 0 2.9 -0.3
v 0 3 -0.1
v 0 3 -0.2
v 0.1 2 0
v 0.1 2 -0.1
v 0.1 2 -0.2
v 0.1 2 -0.3
v 0.1 2.1 0
v 0.1 2.1 -0.1
v 0.1 2.1 -0.2
v 0.1 2.1 -0.3
v 0.1 2.4 0
v 0.1 2.4 -0.1
v 0.1 2.4 -0.2
v 0.1 2.4 -0.3
v 0.1 2.6 0
v 0.1 2.6 -0.1
v 0.1 2.6 -0.2
v 0.1 2.6 -0.3
v 0.1 2.9 0
v 0.1 2.9 -0.1
v 0.1 2.9 -0.2
v 0.1 2.9 -0.3
v 0.1 3 0
v 0.1 3 -0.1
v 0.1 3 -0.2
v 0.1 3 -0.3
v 0.4 2 0
v 0.4 2 -0.1
v 0.4 2 -0.2
v 0.4 2 -0.3
v 0.4 2.1 0
v 0.4 2.1 -0.1
v 0.4 2.1 -0.2
v 0.4 2.1 -0.3
v 0.4 2.9 0
v 0.4 2.9 -0.1
v 0.4 2.9 -0.2
v 0.4 2.9 -0.3
v 0.4 3 0
v 0.4 3 -0.1
v 0.4 3 -0.2
v 0.4 3 -0.3
v 0.7 2 0
v 0.7 2 -0.1
v 0.7 2 -0.2
v 0.7 2 -0.3
v 0.7 2.1 0
v 0.7 2.1 -0.1
v 0.7 2.1 -0.2
v 0.7 2.1 -0.3
v 0.7 2.9 0
v 0.7 2.9 -0.1
v 0.7 2.9 -0.2
v 0.7 2.9 -0.3
v 0.7 3 0
v 0.7 3 -0.1
v 0.7 3 -0.2
v 0.7 3 -0.3
v 0.8 2.2 0
v 0.8 2.2 -0.1
v 0.8 2.2 -0.2
v 0.8 2.2 -0.3
v 0.8 2.3 0
v 0.8 2.3 -0.1
v 0.8 2.3 -0.2
v 0.8 2.3 -0.3
v 0.8 2.4 0
v 0.8 2.4 -0.1
v 0.8 2.4 -0.2
v 0.8 2.4 -0.3
v 0.8 2.8 0
v 0.8 2.8 -0.1
v 0.8 2.8 -0.2
v 0.8 2.8 -0.3
v 0.9 2.3 0
v 0.9 2.3 -0.1
v 0.9 2.3 -0.2
v 0.9 2.3 -0.3
v 0.9 2.4 0
v 0.9 2.4 -0.1
v 0.9 2.4 -0.2
v 0.9 2.4 -0.3
v 0.1 2.6 0
v 0.1 2.6 -0.1
v 0.1 2.6 -0.2
v 0.1 2.6 -0.3
v 0.1 2.7 0
v 0.1 2.7 -0.1
v 0.1 2.7 -0.2
v 0.1 2.7 -0.3
v 0.2 2.2 0
v 0.2 2.2 -0.1
v 0.2 2.2 -0.2
v 0.2 2.2 -0.3
v 0.2 2.6 0
v 0.2 2.6 -0.1
v 0.2 2.6 -0.2
v 0.2 2.6 -0.3
v 0.2 2.7 0
v 0.2 2.7 -0.1
v 0.2 2.7 -0.2
v 0.2 2.7 -0.3
v 0.2 2.8 0
v 0.2 2.8 -0.1
v 0.2 2.8 -0.2
v 0.2 2.8 -0.3
v 0.3 2 0
v 0.3 2 -0.1
v 0.3 2 -0.2
v 0.3 2 -0.3
v 0.3 2.1 0
v 0.3 2.1 -0.1
v 0.3 2.1 -0.2
v 0.3 2.1 -0.3
v 0.3 2.9 0
v 0.3 2.9 -0.1
v 0.3 2.9 -0.2
v 0.3 2.9 -0.3
v 0.3 3 0
v 0.3 3 -0.1
v 0.3 3 -0.2
v 0.3 3 -0.3
v 0.6 2 0
v 0.6 2 -0.1
v 0.6 2 -0.2
v 0.6 2 -0.3
v 0.6 2.1 0
v 0.6 2.1 -0.1
v 0.6 2.1 -0.2
v 0.6 2.1 -0.3
v 0.6 2.9 0
v 0.6 2.9 -0.1
v 0.6 2.9 -0.2
v 0.6 2.9 -0.3
v 0.6 3 0
v 0.6 3 -0.1
v 0.6 3 -0.2
v 0.6 3 -0.3
v 0.9 2 0
v 0.9 2 -0.1
v 0.9 2 -0.2
v 0.9 2 -0.3
v 0.9 2.1 0
v 0.9 2.1 -0.1
v 0.9 2.1 -0.2
v 0.9 2.1 -0.3
v 0.9 2.4 0
v 0.9 2.4 -0.1
v 0.9 2.4 -0.2
v 0.9 2.4 -0.3
v 0.9 2.6 0
v 0.9 2.6 -0.1
v 0.9 2.6 -0.2
v 0.9 2.6 -0.3
v 0.9 2.9 0
v 0.9 2.9 -0.1
v 0.9 2.9 -0.2
v 0.9 2.9 -0.3
v 0.9 3 0
v 0.9 3 -0.1
v 0.9 3 -0.2
v 0.9 3 -0.3
v 1 2 -0.1
v 1 2 -0.2
v 1 2.1 0
v 1 2.1 -0.1
v 1 2.1 -0.2
v 1 2.1 -0.3
v 1 2.2 0
v 1 2.2 -0.1
v 1 2.2 -0.2
v 1 2.2 -0.3
v 1 2.4 0
v 1 2.4 -0.1
v 1 2.4 -0.2
v 1 2.4 -0.3
v 1 2.6 0
v 1 2.6 -0.1
v 1 2.6 -0.2
v 1 2.6 -0.3
v 1 2.8 0
v 1 2.8 -0.1
v 1 2.8 -0.2
v 1 2.8 -0.3
v 1 2.9 0
v 1 2.9 -0.1
v 1 2.9 -0.2
v 1 2.9 -0.3
v 1 3 -0.1
v 1 3 -0.2
v 0 2.1 0
v 0 2.2 0
v 0 2.4 0
v 0 2.6 0
v 0 2.8 0
v 0 2.9 0
v 0.1 2 0
v 0.1 2.1 0
v 0.1 2.4 0
v 0.1 2.6 0
v 0.1 2.7 0
v 0.1 2.9 0
v 0.1 3 0
v 0.2 2 0
v 0.2 2.2 0
v 0.2 2.6 0
v 0.2 2.7 0
v 0.2 2.8 0
v 0.2 3 0
v 0.3 2 0
v 0.3 2.1 0
v 0.3 2.2 0
v 0.3 2.9 0
v 0.3 3 0
v 0.4 2 0
v 0.4 2.1 0
v 0.4 2.2 0
v 0.4 2.9 0
v 0.4 3 0
v 0.5 2.8 0
v 0.5 2.9 0
v 0.6 2 0
v 0.6 2.1 0
v 0.6 2.8 0
v 0.6 2.9 0
v 0.6 3 0
v 0.7 2 0
v 0.7 2.1 0
v 0.7 2.9 0
v 0.7 3 0
v 0.8 2 0
v 0.8 2.2 0
v 0.8 2.3 0
v 0.8 2.4 0
v 0.8 2.8 0
v 0.8 3 0
v 0.9 2 0
v 0.9 2.1 0
v 0.9 2.3 0
v 0.9 2.4 0
v 0.9 2.6 0
v 0.9 2.9 0
v 0.9 3 0
v 1 2.1 0
v 1 2.2 0
v 1 2.4 0
v 1 2.6 0
v 1 2.8 0
v 1 2.9 0
v 0 2 -0.1
v 0 2.1 -0.1
v 0 2.4 -0.1
v 0 2.6 -0.1
v 0 2.9 -0.1
v 0 3 -0.1
v 0.1 2 -0.1
v 0.1 2.1 -0.1
v 0.1 2.4 -0.1
v 0.1 2.6 -0.1
v 0.1 2.7 -0.1
v 0.1 2.9 -0.1
v 0.1 3 -0.1
v 0.2 2.6 -0.1
v 0.2 2.7 -0.1
v 0.3 2 -0.1
v 0.3 2.1 -0.1
v 0.3 2.9 -0.1
v 0.3 3 -0.1
v 0.4 2 -0.1
v 0.4 2.1 -0.1
v 0.4 2.9 -0.1
v 0.4 3 -0.1
v 0.6 2 -0.1
v 0.6 2.1 -0.1
v 0.6 2.9 -0.1
v 0.6 3 -0.1
v 0.7 2 -0.1
v 0.7 2.1 -0.1
v 0.7 2.9 -0.1
v 0.7 3 -0.1
v 0.8 2.3 -0.1
v 0.8 2.4 -0.1
v 0.9 2 -0.1
v 0.9 2.1 -0.1
v 0.9 2.3 -0.1
v 0.9 2.4 -0.1
v 0.9 2.6 -0.1
v 0.9 2.9 -0.1
v 0.9 3 -0.1
v 1 2 -0.1
v 1 2.1 -0.1
v 1 2.4 -0.1
v 1 2.6 -0.1
v 1 2.9 -0.1
v 1 3 -0.1
v 0 2 -0.2
v 0 2.1 -0.2
v 0 2.4 -0.2
v 0 2.6 -0.2
v 0 2.9 -0.2
v 0 3 -0.2
v 0.1 2 -0.2
v 0.1 2.1 -0.2
v 0.1 2.4 -0.2
v 0.1 2.6 -0.2
v 0.1 2.7 -0.2
v 0.1 2.9 -0.2
v 0.1 3 -0.2
v 0.2 2.6 -0.2
v 0.2 2.7 -0.2
v 0.3 2 -0.2
v 0.3 2.1 -0.2
v 0.3 2.9 -0.2
v 0.3 3 -0.2
v 0.4 2 -0.2
v 0.4 2.1 -0.2
v 0.4 2.9 -0.2
v 0.4 3 -0.2
v 0.6 2 -0.2
v 0.6 2.1 -0.2
v 0.6 2.9 -0.2
v 0.6 3 -0.2
v 0.7 2 -0.2
v 0.7 2.1 -0.2
v 0.7 2.9 -0.2
v 0.7 3 -0.2
v 0.8 2.3 -0.2
v 0.8 2.4 -0.2
v 0.9 2 -0.2
v 0.9 2.1 -0.2
v 0.9 2.3 -0.2
v 0.9 2.4 -0.2
v 0.9 2.6 -0.2
v 0.9 2.9 -0.2
v 0.9 3 -0.2
v 1 2 -0.2
v 1 2.1 -0.2
v 1 2.4 -0.2
v 1 2.6 -0.2
v 1 2.9 -0.2
v 1 3 -0.2
v 0 2.1 -0.3
v 0 2.2 -0.3
v 0 2.4 -0.3
v 0 2.6 -0.3
v 0 2.8 -0.3
v 0 2.9 -0.3
v 0.1 2 -0.3
v 0.1 2.1 -0.3
v 0.1 2.4 -0.3
v 0.1 2.6 -0.3
v 0.1 2.7 -0.3
v 0.1 2.9 -0.3
v 0.1 3 -0.3
v 0.2 2 -0.3
v 0.2 2.2 -0.3
v 0.2 2.6 -0.3
v 0.2 2.7 -0.3
v 0.2 2.8 -0.3
v 0.2 3 -0.3
v 0.3 2 -0.3
v 0.3 2.1 -0.3
v 0.3 2.8 -0.3
v 0.3 2.9 -0.3
v 0.3 3 -0.3
v 0.4 2 -0.3
v 0.4 2.1 -0.3
v 0.4 2.8 -0.3
v 0.4 2.9 -0.3
v 0.4 3 -0.3
v 0.6 2 -0.3
v 0.6 2.1 -0.3
v 0.6 2.2 -0.3
v 0.6 2.9 -0.3
v 0.6 3 -0.3
v 0.7 2 -0.3
v 0.7 2.1 -0.3
v 0.7 2.2 -0.3
v 0.7 2.9 -0.3
v 0.7 3 -0.3
v 0.8 2 -0.3
v 0.8 2.2 -0.3
v 0.8 2.3 -0.3
v 0.8 2.4 -0.3
v 0.8 2.8 -0.3
v 0.8 3 -0.3
v 0.9 2 -0.3
v 0.9 2.1 -0.3
v 0.9 2.3 -0.3
v 0.9 2.4 -0.3
v 0.9 2.6 -0.3
v 0.9 2.9 -0.3
v 0.9 3 -0.3
v 1 2.1 -0.3
v 1 2.2 -0.3
v 1 2.4 -0.3
v 1 2.6 -0.3
v 1 2.8 -0.3
v 1 2.9 -0.3
v 0.1 2 0
v 0.2 2 0
v 0.3 2 0
v 0.4 2 0
v 0.6 2 0
v 0.7 2 0
v 0.8 2 0
v 0.9 2 0
v 0 2 -0.1
v 0.1 2 -0.1
v 0.2 2 -0.1
v 0.3 2 -0.1
v 0.4 2 -0.1
v 0.6 2 -0.1
v 0.7 2 -0.1
v 0.8 2 -0.1
v 0.9 2 -0.1
v 1 2 -0.1
v 0 2 -0.2
v 0.1 2 -0.2
v 0.2 2 -0.2
v 0.3 2 -0.2
v 0.4 2 -0.2
v 0.6 2 -0.2
v 0.7 2 -0.2
v 0.8 2 -0.2
v 0.9 2 -0.2
v 1 2 -0.2
v 0.1 2 -0.3
v 0.2 2 -0.3
v 0.3 2 -0.3
v 0.4 2 -0.3
v 0.6 2 -0.3
v 0.7 2 -0.3
v 0.8 2 -0.3
v 0.9 2 -0.3
v 0 2.1 0
v 0.1 2.1 0
v 0.3 2.1 0
v 0.4 2.1 0
v 0.6 2.1 0
v 0.7 2.1 0
v 0.9 2.1 0
v 1 2.1 0
v 0 2.1 -0.1
v 0.1 2.1 -0.1
v 0.3 2.1 -0.1
v 0.4 2.1 -0.1
v 0.6 2.1 -0.1
v 0.7 2.1 -0.1
v 0.9 2.1 -0.1
v 1 2.1 -0.1
v 0 2.1 -0.2
v 0.1 2.1 -0.2
v 0.3 2.1 -0.2
v 0.4 2.1 -0.2
v 0.6 2.1 -0.2
v 0.7 2.1 -0.2
v 0.9 2.1 -0.2
v 1 2.1 -0.2
v 0 2.1 -0.3
v 0.1 2.1 -0.3
v 0.3 2.1 -0.3
v 0.4 2.1 -0.3
v 0.6 2.1 -0.3
v 0.7 2.1 -0.3
v 0.9 2.1 -0.3
v 1 2.1 -0.3
v 0.8 2.4 0
v 0.9 2.4 0
v 0.8 2.4 -0.1
v 0.9 2.4 -0.1
v 0.8 2.4 -0.2
v 0.9 2.4 -0.2
v 0.8 2.4 -0.3
v 0.9 2.4 -0.3
v 0 2.6 0
v 0.1 2.6 0
v 0.9 2.6 0
v 1 2.6 0
v 0 2.6 -0.1
v 0.1 2.6 -0.1
v 0.9 2.6 -0.1
v 1 2.6 -0.1
v 0 2.6 -0.2
v 0.1 2.6 -0.2
v 0.9 2.6 -0.2
v 1 2.6 -0.2
v 0 2.6 -0.3
v 0.1 2.6 -0.3
v 0.9 2.6 -0.3
v 1 2.6 -0.3
v 0.1 2.7 0
v 0.2 2.7 0
v 0.1 2.7 -0.1
v 0.2 2.7 -0.1
v 0.1 2.7 -0.2
v 0.2 2.7 -0.2
v 0.1 2.7 -0.3
v 0.2 2.7 -0.3
v 0.2 2.8 0
v 0.5 2.8 0
v 0.6 2.8 0
v 0.8 2.8 0
v 0.2 2.8 -0.1
v 0.5 2.8 -0.1
v 0.6 2.8 -0.1
v 0.8 2.8 -0.1
v 0.2 2.8 -0.2
v 0.3 2.8 -0.2
v 0.4 2.8 -0.2
v 0.8 2.8 -0.2
v 0.2 2.8 -0.3
v 0.3 2.8 -0.3
v 0.4 2.8 -0.3
v 0.8 2.8 -0.3
v 0.2 2.2 0
v 0.3 2.2 0
v 0.4 2.2 0
v 0.8 2.2 0
v 0.2 2.2 -0.1
v 0.3 2.2 -0.1
v 0.4 2.2 -0.1
v 0.8 2.2 -0.1
v 0.2 2.2 -0.2
v 0.6 2.2 -0.2
v 0.7 2.2 -0.2
v 0.8 2.2 -0.2
v 0.2 2.2 -0.3
v 0.6 2.2 -0.3
v 0.7 2.2 -0.3
v 0.8 2.2 -0.3
v 0.8 2.3 0
v 0.9 2.3 0
v 0.8 2.3 -0.1
v 0.9 2.3 -0.1
v 0.8 2.3 -0.2
v 0.9 2.3 -0.2
v 0.8 2.3 -0.3
v 0.9 2.3 -0.3
v 0 2.4 0
v 0.1 2.4 0
v 0.9 2.4 0
v 1 2.4 0
v 0 2.4 -0.1
v 0.1 2.4 -0.1
v 0.9 2.4 -0.1
v 1 2.4 -0.1
v 0 2.4 -0.2
v 0.1 2.4 -0.2
v 0.9 2.4 -0.2
v 1 2.4 -0.2
v 0 2.4 -0.3
v 0.1 2.4 -0.3
v 0.9 2.4 -0.3
v 1 2.4 -0.3
v 0.1 2.6 0
v 0.2 2.6 0
v 0.1 2.6 -0.1
v 0.2 2.6 -0.1
v 0.1 2.6 -0.2
v 0.2 2.6 -0.2
v 0.1 2.6 -0.3
v 0.2 2.6 -0.3
v 0 2.9 0
v 0.1 2.9 0
v 0.3 2.9 0
v 0.4 2.9 0
v 0.6 2.9 0
v 0.7 2.9 0
v 0.9 2.9 0
v 1 2.9 0
v 0 2.9 -0.1
v 0.1 2.9 -0.1
v 0.3 2.9 -0.1
v 0.4 2.9 -0.1
v 0.6 2.9 -0.1
v 0.7 2.9 -0.1
v 0.9 2.9 -0.1
v 1 2.9 -0.1
v 0 2.9 -0.2
v 0.1 2.9 -0.2
v 0.3 2.9 -0.2
v 0.4 2.9 -0.2
v 0.6 2.9 -0.2
v 0.7 2.9 -0.2
v 0.9 2.9 -0.2
v 1 2.9 -0.2
v 0 2.9 -0.3
v 0.1 2.9 -0.3
v 0.3 2.9 -0.3
v 0.4 2.9 -0.3
v 0.6 2.9 -0.3
v 0.7 2.9 -0.3
v 0.9 2.9 -0.3
v 1 2.9 -0.3
v 0.1 3 0
v 0.2 3 0
v 0.3 3 0
v 0.4 3 0
v 0.6 3 0
v 0.7 3 0
v 0.8 3 0
v 0.9 3 0
v 0 3 -0.1
v 0.1 3 -0.1
v 0.2 3 -0.1
v 0.3 3 -0.1
v 0.4 3 -0.1
v 0.6 3 -0.1
v 0.7 3 -0.1
v 0.8 3 -0.1
v 0.9 3 -0.1
v 1 3 -0.1
v 0 3 -0.2
v 0.1 3 -0.2
v 0.2 3 -0.2
v 0.3 3 -0.2
v 0.4 3 -0.2
v 0.6 3 -0.2
v 0.7 3 -0.2
v 0.8 3 -0.2
v 0.9 3 -0.2
v 1 3 -0.2
v 0.1 3 -0.3
v 0.2 3 -0.3
v 0.3 3 -0.3
v 0.4 3 -0.3
v 0.6 3 -0.3
v 0.7 3 -0.3
v 0.8 3 -0.3
v 0.9 3 -0.3

# faces
f 4/5/1 2/5/1 1/5/1
f 5/5/1 2/5/1 4/5/1
f 7/4/1 4/4/1 3/4/1
f 8/5/1 5/5/1 4/5/1
f 8/4/1 4/4/1 7/4/1
f 9/4/1 6/4/1 5/4/1
f 9/5/1 5/5/1 8/5/1
f 10/4/1 6/4/1 9/4/1
f 11/3/1 8/3/1 7/3/1
f 12/5/1 9/5/1 8/5/1
f 12/3/1 8/3/1 11/3/1
f 13/3/1 10/3/1 9/3/1
f 13/5/1 9/5/1 12/5/1
f 14/3/1 10/3/1 13/3/1
f 16/5/1 13/5/1 12/5/1
f 17/5/1 13/5/1 16/5/1
f 19/3/1 16/3/1 15/3/1
f 20/5/1 17/5/1 16/5/1
f 20/3/1 16/3/1 19/3/1
f 21/3/1 18/3/1 17/3/1
f 21/5/1 17/5/1 20/5/1
f 22/3/1 18/3/1 21/3/1
f 23/4/1 20/4/1 19/4/1
f 24/5/1 21/5/1 20/5/1
f 24/4/1 20/4/1 23/4/1
f 25/4/1 22/4/1 21/4/1
f 25/5/1 21/5/1 24/5/1
f 26/4/1 22/4/1 25/4/1
f 27/5/1 25/5/1 24/5/1
f 28/5/1 25/5/1 27/5/1
f 33/4/1 30/4/1 29/4/1
f 34/4/1 30/4/1 33/4/1
f 35/4/1 32/4/1 31/4/1
f 36/4/1 32/4/1 35/4/1
f 41/3/1 38/3/1 37/3/1
f 42/3/1 38/3/1 41/3/1
f 43/3/1 40/3/1 39/3/1
f 44/3/1 40/3/1 43/3/1
f 49/4/1 46/4/1 45/4/1
f 50/4/1 46/4/1 49/4/1
f 51/4/1 48/4/1 47/4/1
f 52/4/1 48/4/1 51/4/1
f 57/3/1 54/3/1 53/3/1
f 58/3/1 54/3/1 57/3/1
f 59/3/1 56/3/1 55/3/1
f 60/3/1 56/3/1 59/3/1
f 65/3/1 62/3/1 61/3/1
f 66/3/1 62/3/1 65/3/1
f 67/3/1 64/3/1 63/3/1
f 68/3/1 64/3/1 67/3/1
f 73/3/1 70/3/1 69/3/1
f 74/3/1 70/3/1 73/3/1
f 75/3/1 72/3/1 71/3/1
f 76/3/1 72/3/1 75/3/1
f 81/3/1 78/3/1 77/3/1
f 82/3/1 78/3/1 81/3/1
f 83/3/1 80/3/1 79/3/1
f 84/3/1 80/3/1 83/3/1
f 89/3/1 86/3/1 85/3/1
f 90/6/1 87/6/1 86/6/1
f 90/3/1 86/3/1 89/3/1
f 91/3/1 88/3/1 87/3/1
f 91/6/1 87/6/1 90/6/1
f 92/3/1 88/3/1 91/3/1
f 94/2/1 91/2/1 90/2/1
f 95/2/1 91/2/1 94/2/1
f 97/3/1 94/3/1 93/3/1
f 98/6/1 95/6/1 94/6/1
f 98/3/1 94/3/1 97/3/1
f 99/3/1 96/3/1 95/3/1
f 99/6/1 95/6/1 98/6/1
f 100/3/1 96/3/1 99/3/1
f 105/3/1 102/3/1 101/3/1
f 106/3/1 102/3/1 105/3/1
f 107/3/1 104/3/1 103/3/1
f 108/3/1 104/3/1 107/3/1
f 109/3/2 110/3/2 113/3/2
f 113/3/2 110/3/2 114/3/2
f 111/3/2 112/3/2 115/3/2
f 115/3/2 112/3/2 116/3/2
f 117/3/2 118/3/2 121/3/2
f 118/6/2 119/6/2 122/6/2
f 121/3/2 118/3/2 122/3/2
f 119/3/2 120/3/2 123/3/2
f 122/6/2 119/6/2 123/6/2
f 123/3/2 120/3/2 124/3/2
f 122/2/2 123/2/2 126/2/2
f 126/2/2 123/2/2 127/2/2
f 125/3/2 126/3/2 129/3/2
f 126/6/2 127/6/2 130/6/2
f 129/3/2 126/3/2 130/3/2
f 127/3/2 128/3/2 131/3/2
f 130/6/2 127/6/2 131/6/2
f 131/3/2 128/3/2 132/3/2
f 133/3/2 134/3/2 137/3/2
f 137/3/2 134/3/2 138/3/2
f 135/3/2 136/3/2 139/3/2
f 139/3/2 136/3/2 140/3/2
f 141/3/2 142/3/2 145/3/2
f 145/3/2 142/3/2 146/3/2
f 143/3/2 144/3/2 147/3/2
f 147/3/2 144/3/2 148/3/2
f 149/3/2 150/3/2 153/3/2
f 153/3/2 150/3/2 154/3/2
f 151/3/2 152/3/2 155/3/2
f 155/3/2 152/3/2 156/3/2
f 157/3/2 158/3/2 161/3/2
f 161/3/2 158/3/2 162/3/2
f 159/3/2 160/3/2 163/3/2
f 163/3/2 160/3/2 164/3/2
f 165/4/2 166/4/2 169/4/2
f 169/4/2 166/4/2 170/4/2
f 167/4/2 168/4/2 171/4/2
f 171/4/2 168/4/2 172/4/2
f 173/3/2 174/3/2 177/3/2
f 177/3/2 174/3/2 178/3/2
f 175/3/2 176/3/2 179/3/2
f 179/3/2 176/3/2 180/3/2
f 181/4/2 182/4/2 185/4/2
f 185/4/2 182/4/2 186/4/2
f 183/4/2 184/4/2 187/4/2
f 187/4/2 184/4/2 188/4/2
f 189/5/2 190/5/2 192/5/2
f 192/5/2 190/5/2 193/5/2
f 191/4/2 192/4/2 195/4/2
f 192/5/2 193/5/2 196/5/2
f 195/4/2 192/4/2 196/4/2
f 193/4/2 194/4/2 197/4/2
f 196/5/2 193/5/2 197/5/2
f 197/4/2 194/4/2 198/4/2
f 195/3/2 196/3/2 199/3/2
f 196/5/2 197/5/2 200/5/2
f 199/3/2 196/3/2 200/3/2
f 197/3/2 198/3/2 201/3/2
f 200/5/2 197/5/2 201/5/2
f 201/3/2 198/3/2 202/3/2
f 200/5/2 201/5/2 204/5/2
f 204/5/2 201/5/2 205/5/2
f 203/3/2 204/3/2 207/3/2
f 204/5/2 205/5/2 208/5/2
f 207/3/2 204/3/2 208/3/2
f 205/3/2 206/3/2 209/3/2
f 208/5/2 205/5/2 209/5/2
f 209/3/2 206/3/2 210/3/2
f 207/4/2 208/4/2 211/4/2
f 208/5/2 209/5/2 212/5/2
f 211/4/2 208/4/2 212/4/2
f 209/4/2 210/4/2 213/4/2
f 212/5/2 209/5/2 213/5/2
f 213/4/2 210/4/2 214/4/2
f 212/5/2 213/5/2 215/5/2
f 215/5/2 213/5/2 216/5/2
f 224/4/3 218/4/3 217/4/3
f 225/3/3 219/3/3 218/3/3
f 226/3/3 221/3/3 220/3/3
f 227/3/3 221/3/3 226/3/3
f 228/4/3 222/4/3 221/4/3
f 230/4/3 224/4/3 223/4/3
f 231/3/3 225/3/3 218/3/3
f 231/4/3 224/4/3 230/4/3
f 231/4/3 218/4/3 224/4/3
f 231/3/3 226/3/3 225/3/3
f 232/3/3 226/3/3 231/3/3
f 233/3/3 221/3/3 227/3/3
f 234/4/3 229/4/3 228/4/3
f 234/3/3 221/3/3 233/3/3
f 234/4/3 228/4/3 221/4/3
f 235/4/3 229/4/3 234/4/3
f 236/3/3 231/3/3 230/3/3
f 237/3/3 231/3/3 236/3/3
f 238/3/3 231/3/3 237/3/3
f 239/3/3 235/3/3 234/3/3
f 240/3/3 235/3/3 239/3/3
f 242/2/3 238/2/3 237/2/3
f 243/2/3 238/2/3 242/2/3
f 244/3/3 239/3/3 234/3/3
f 246/3/3 244/3/3 234/3/3
f 246/3/3 245/3/3 244/3/3
f 247/3/3 245/3/3 246/3/3
f 248/3/3 243/3/3 242/3/3
f 248/3/3 242/3/3 241/3/3
f 249/3/3 243/3/3 248/3/3
f 250/2/3 247/2/3 246/2/3
f 251/3/3 245/3/3 247/3/3
f 251/2/3 247/2/3 250/2/3
f 252/3/3 245/3/3 251/3/3
f 254/3/3 243/3/3 249/3/3
f 255/3/3 251/3/3 250/3/3
f 257/3/3 254/3/3 253/3/3
f 258/3/3 243/3/3 254/3/3
f 258/3/3 254/3/3 257/3/3
f 261/3/3 256/3/3 255/3/3
f 261/3/3 255/3/3 250/3/3
f 262/3/3 256/3/3 261/3/3
f 263/4/3 258/4/3 257/4/3
f 264/4/3 258/4/3 263/4/3
f 265/3/3 259/3/3 258/3/3
f 266/3/3 261/3/3 260/3/3
f 267/3/3 261/3/3 266/3/3
f 268/4/3 262/4/3 261/4/3
f 269/4/3 262/4/3 268/4/3
f 270/4/3 258/4/3 264/4/3
f 271/3/3 265/3/3 258/3/3
f 271/4/3 258/4/3 270/4/3
f 271/3/3 266/3/3 265/3/3
f 272/3/3 266/3/3 271/3/3
f 273/3/3 261/3/3 267/3/3
f 274/4/3 268/4/3 261/4/3
f 274/3/3 261/3/3 273/3/3
f 275/4/3 268/4/3 274/4/3
f 282/5/3 277/5/3 276/5/3
f 283/5/3 277/5/3 282/5/3
f 284/5/3 279/5/3 278/5/3
f 285/5/3 279/5/3 284/5/3
f 287/5/3 281/5/3 280/5/3
f 288/5/3 281/5/3 287/5/3
f 289/2/3 286/2/3 285/2/3
f 290/2/3 286/2/3 289/2/3
f 295/5/3 292/5/3 291/5/3
f 296/5/3 292/5/3 295/5/3
f 297/5/3 294/5/3 293/5/3
f 298/5/3 294/5/3 297/5/3
f 303/5/3 300/5/3 299/5/3
f 304/5/3 300/5/3 303/5/3
f 305/5/3 302/5/3 301/5/3
f 306/5/3 302/5/3 305/5/3
f 311/2/3 308/2/3 307/2/3
f 312/2/3 308/2/3 311/2/3
f 316/5/3 310/5/3 309/5/3
f 317/5/3 310/5/3 316/5/3
f 318/5/3 313/5/3 312/5/3
f 319/5/3 313/5/3 318/5/3
f 320/5/3 315/5/3 314/5/3
f 321/5/3 315/5/3 320/5/3
f 322/5/4 323/5/4 328/5/4
f 328/5/4 323/5/4 329/5/4
f 324/5/4 325/5/4 330/5/4
f 330/5/4 325/5/4 331/5/4
f 326/5/4 327/5/4 333/5/4
f 333/5/4 327/5/4 334/5/4
f 331/2/4 332/2/4 335/2/4
f 335/2/4 332/2/4 336/2/4
f 337/5/4 338/5/4 341/5/4
f 341/5/4 338/5/4 342/5/4
f 339/5/4 340/5/4 343/5/4
f 343/5/4 340/5/4 344/5/4
f 345/5/4 346/5/4 349/5/4
f 349/5/4 346/5/4 350/5/4
f 347/5/4 348/5/4 351/5/4
f 351/5/4 348/5/4 352/5/4
f 353/2/4 354/2/4 357/2/4
f 357/2/4 354/2/4 358/2/4
f 355/5/4 356/5/4 362/5/4
f 362/5/4 356/5/4 363/5/4
f 358/5/4 359/5/4 364/5/4
f 364/5/4 359/5/4 365/5/4
f 360/5/4 361/5/4 366/5/4
f 366/5/4 361/5/4 367/5/4
f 368/4/4 369/4/4 375/4/4
f 369/3/4 370/3/4 376/3/4
f 371/3/4 372/3/4 377/3/4
f 377/3/4 372/3/4 378/3/4
f 372/4/4 373/4/4 379/4/4
f 374/4/4 375/4/4 381/4/4
f 369/3/4 376/3/4 382/3/4
f 381/4/4 375/4/4 382/4/4
f 375/4/4 369/4/4 382/4/4
f 376/3/4 377/3/4 382/3/4
f 382/3/4 377/3/4 383/3/4
f 378/3/4 372/3/4 384/3/4
f 379/4/4 380/4/4 385/4/4
f 384/3/4 372/3/4 385/3/4
f 372/4/4 379/4/4 385/4/4
f 385/4/4 380/4/4 386/4/4
f 381/3/4 382/3/4 387/3/4
f 387/3/4 382/3/4 388/3/4
f 385/3/4 386/3/4 389/3/4
f 389/3/4 386/3/4 390/3/4
f 390/3/4 386/3/4 391/3/4
f 388/3/4 382/3/4 393/3/4
f 389/2/4 390/2/4 394/2/4
f 394/2/4 390/2/4 395/2/4
f 392/3/4 393/3/4 397/3/4
f 393/3/4 382/3/4 398/3/4
f 397/3/4 393/3/4 398/3/4
f 398/3/4 382/3/4 399/3/4
f 395/3/4 396/3/4 400/3/4
f 394/3/4 395/3/4 400/3/4
f 400/3/4 396/3/4 401/3/4
f 398/2/4 399/2/4 403/2/4
f 403/2/4 399/2/4 404/2/4
f 394/3/4 400/3/4 405/3/4
f 403/3/4 404/3/4 407/3/4
f 402/3/4 403/3/4 407/3/4
f 407/3/4 404/3/4 408/3/4
f 405/3/4 406/3/4 411/3/4
f 394/3/4 405/3/4 411/3/4
f 411/3/4 406/3/4 412/3/4
f 407/4/4 408/4/4 413/4/4
f 413/4/4 408/4/4 414/4/4
f 408/3/4 409/3/4 415/3/4
f 410/3/4 411/3/4 416/3/4
f 416/3/4 411/3/4 417/3/4
f 411/4/4 412/4/4 418/4/4
f 418/4/4 412/4/4 419/4/4
f 414/4/4 408/4/4 420/4/4
f 408/3/4 415/3/4 421/3/4
f 420/4/4 408/4/4 421/4/4
f 415/3/4 416/3/4 421/3/4
f 421/3/4 416/3/4 422/3/4
f 417/3/4 411/3/4 423/3/4
f 411/4/4 418/4/4 424/4/4
f 423/3/4 411/3/4 424/3/4
f 424/4/4 418/4/4 425/4/4
f 435/4/5 427/4/5 426/4/5
f 436/3/5 428/3/5 427/3/5
f 436/4/5 427/4/5 435/4/5
f 437/3/5 428/3/5 436/3/5
f 438/3/5 430/3/5 429/3/5
f 439/3/5 430/3/5 438/3/5
f 440/3/5 432/3/5 431/3/5
f 441/4/5 433/4/5 432/4/5
f 441/3/5 432/3/5 440/3/5
f 442/4/5 433/4/5 441/4/5
f 444/5/5 440/5/5 439/5/5
f 444/5/5 443/5/5 442/5/5
f 444/5/5 442/5/5 441/5/5
f 444/5/5 441/5/5 440/5/5
f 444/5/5 435/5/5 434/5/5
f 444/5/5 438/5/5 437/5/5
f 444/5/5 437/5/5 436/5/5
f 444/5/5 436/5/5 435/5/5
f 444/5/5 439/5/5 438/5/5
f 445/5/5 443/5/5 444/5/5
f 446/5/5 443/5/5 445/5/5
f 447/5/5 443/5/5 446/5/5
f 448/5/5 443/5/5 447/5/5
f 449/5/5 443/5/5 448/5/5
f 450/5/5 443/5/5 449/5/5
f 451/5/5 443/5/5 450/5/5
f 452/5/5 443/5/5 451/5/5
f 453/5/5 443/5/5 452/5/5
f 454/4/5 446/4/5 445/4/5
f 455/3/5 447/3/5 446/3/5
f 455/4/5 446/4/5 454/4/5
f 456/3/5 447/3/5 455/3/5
f 457/3/5 449/3/5 448/3/5
f 458/3/5 449/3/5 457/3/5
f 459/3/5 451/3/5 450/3/5
f 460/4/5 452/4/5 451/4/5
f 460/3/5 451/3/5 459/3/5
f 461/4/5 452/4/5 460/4/5
f 470/4/5 463/4/5 462/4/5
f 471/4/5 463/4/5 470/4/5
f 472/2/5 465/2/5 464/2/5
f 473/2/5 465/2/5 472/2/5
f 474/3/5 467/3/5 466/3/5
f 475/3/5 467/3/5 474/3/5
f 476/4/5 469/4/5 468/4/5
f 477/4/5 469/4/5 476/4/5
f 486/4/5 479/4/5 478/4/5
f 487/4/5 479/4/5 486/4/5
f 488/3/5 481/3/5 480/3/5
f 489/3/5 481/3/5 488/3/5
f 490/2/5 483/2/5 482/2/5
f 491/2/5 483/2/5 490/2/5
f 492/4/5 485/4/5 484/4/5
f 493/4/5 485/4/5 492/4/5
f 496/3/5 495/3/5 494/3/5
f 497/3/5 495/3/5 496/3/5
f 500/3/5 499/3/5 498/3/5
f 501/3/5 499/3/5 500/3/5
f 506/3/5 503/3/5 502/3/5
f 507/3/5 503/3/5 506/3/5
f 508/3/5 505/3/5 504/3/5
f 509/3/5 505/3/5 508/3/5
f 514/3/5 511/3/5 510/3/5
f 515/3/5 511/3/5 514/3/5
f 516/3/5 513/3/5 512/3/5
f 517/3/5 513/3/5 516/3/5
f 520/3/5 519/3/5 518/3/5
f 521/3/5 519/3/5 520/3/5
f 524/3/5 523/3/5 522/3/5
f 525/3/5 523/3/5 524/3/5
f 530/3/5 527/3/5 526/3/5
f 531/2/5 528/2/5 527/2/5
f 531/3/5 527/3/5 530/3/5
f 532/3/5 529/3/5 528/3/5
f 532/2/5 528/2/5 531/2/5
f 533/3/5 529/3/5 532/3/5
f 534/6/5 531/6/5 530/6/5
f 534/6/5 532/6/5 531/6/5
f 534/6/5 533/6/5 532/6/5
f 535/6/5 533/6/5 534/6/5
f 536/6/5 533/6/5 535/6/5
f 537/6/5 533/6/5 536/6/5
f 538/3/5 535/3/5 534/3/5
f 539/2/5 536/2/5 535/2/5
f 539/3/5 535/3/5 538/3/5
f 540/3/5 537/3/5 536/3/5
f 540/2/5 536/2/5 539/2/5
f 541/3/5 537/3/5 540/3/5
f 542/3/6 543/3/6 546/3/6
f 543/2/6 544/2/6 547/2/6
f 546/3/6 543/3/6 547/3/6
f 544/3/6 545/3/6 548/3/6
f 547/2/6 544/2/6 548/2/6
f 548/3/6 545/3/6 549/3/6
f 546/6/6 547/6/6 550/6/6
f 547/6/6 548/6/6 550/6/6
f 548/6/6 549/6/6 550/6/6
f 550/6/6 549/6/6 551/6/6
f 551/6/6 549/6/6 552/6/6
f 552/6/6 549/6/6 553/6/6
f 550/3/6 551/3/6 554/3/6
f 551/2/6 552/2/6 555/2/6
f 554/3/6 551/3/6 555/3/6
f 552/3/6 553/3/6 556/3/6
f 555/2/6 552/2/6 556/2/6
f 556/3/6 553/3/6 557/3/6
f 558/3/6 559/3/6 560/3/6
f 560/3/6 559/3/6 561/3/6
f 562/3/6 563/3/6 564/3/6
f 564/3/6 563/3/6 565/3/6
f 566/3/6 567/3/6 570/3/6
f 570/3/6 567/3/6 571/3/6
f 568/3/6 569/3/6 572/3/6
f 572/3/6 569/3/6 573/3/6
f 574/3/6 575/3/6 578/3/6
f 578/3/6 575/3/6 579/3/6
f 576/3/6 577/3/6 580/3/6
f 580/3/6 577/3/6 581/3/6
f 582/3/6 583/3/6 584/3/6
f 584/3/6 583/3/6 585/3/6
f 586/3/6 587/3/6 588/3/6
f 588/3/6 587/3/6 589/3/6
f 590/4/6 591/4/6 598/4/6
f 598/4/6 591/4/6 599/4/6
f 592/3/6 593/3/6 600/3/6
f 600/3/6 593/3/6 601/3/6
f 594/3/6 595/3/6 602/3/6
f 602/3/6 595/3/6 603/3/6
f 596/4/6 597/4/6 604/4/6
f 604/4/6 597/4/6 605/4/6
f 606/4/6 607/4/6 614/4/6
f 614/4/6 607/4/6 615/4/6
f 608/2/6 609/2/6 616/2/6
f 616/2/6 609/2/6 617/2/6
f 610/3/6 611/3/6 618/3/6
f 618/3/6 611/3/6 619/3/6
f 612/4/6 613/4/6 620/4/6
f 620/4/6 613/4/6 621/4/6
f 622/4/6 623/4/6 631/4/6
f 623/3/6 624/3/6 632/3/6
f 631/4/6 623/4/6 632/4/6
f 632/3/6 624/3/6 633/3/6
f 625/3/6 626/3/6 634/3/6
f 634/3/6 626/3/6 635/3/6
f 627/3/6 628/3/6 636/3/6
f 628/4/6 629/4/6 637/4/6
f 636/3/6 628/3/6 637/3/6
f 637/4/6 629/4/6 638/4/6
f 635/5/6 636/5/6 640/5/6
f 638/5/6 639/5/6 640/5/6
f 637/5/6 638/5/6 640/5/6
f 636/5/6 637/5/6 640/5/6
f 630/5/6 631/5/6 640/5/6
f 633/5/6 634/5/6 640/5/6
f 632/5/6 633/5/6 640/5/6
f 631/5/6 632/5/6 640/5/6
f 634/5/6 635/5/6 640/5/6
f 640/5/6 639/5/6 641/5/6
f 641/5/6 639/5/6 642/5/6
f 642/5/6 639/5/6 643/5/6
f 643/5/6 639/5/6 644/5/6
f 644/5/6 639/5/6 645/5/6
f 645/5/6 639/5/6 646/5/6
f 646/5/6 639/5/6 647/5/6
f 647/5/6 639/5/6 648/5/6
f 648/5/6 639/5/6 649/5/6
f 641/4/6 642/4/6 650/4/6
f 642/3/6 643/3/6 651/3/6
f 650/4/6 642/4/6 651/4/6
f 651/3/6 643/3/6 652/3/6
f 644/3/6 645/3/6 653/3/6
f 653/3/6 645/3/6 654/3/6
f 646/3/6 647/3/6 655/3/6
f 647/4/6 648/4/6 656/4/6
f 655/3/6 647/3/6 656/3/6
f 656/4/6 648/4/6 657/4/6
