# MagicaVoxel @ Ephtracy

# group
o Stairs

# material
mtllib HandHold.mtl
usemtl palette

# normals
vn -1 0 0
vn 1 0 0
vn 0 0 1
vn 0 0 -1
vn 0 -1 0
vn 0 1 0

# texcoords
vt 0.876953 0.5
vt 0.880859 0.5
vt 0.884766 0.5
vt 0.888672 0.5
vt 0.939453 0.5
vt 0.947266 0.5
vt 0.951172 0.5
vt 0.978516 0.5

# verts
v 0 2.5 -0.8
v 0 2.5 -0.9
v 0 2.7 -0.8
v 0 2.7 -0.9
v 0 2.8 -0.9
v 0 2.8 -1
v 0 2.9 -0.9
v 0 2.9 -1
v 0 3 -0.8
v 0 3 -0.9
v 0 3 -1
v 0 3 -1.1
v 0 3.1 -0.8
v 0 3.1 -0.9
v 0 3.1 -1
v 0 3.1 -1.1
v 0 3.2 -0.8
v 0 3.2 -0.9
v 0 3.2 -1
v 0 3.2 -1.1
v 0 3.4 -0.9
v 0 3.4 -1
v 0.1 2.5 0
v 0.1 2.5 -0.7
v 0.1 2.5 -1
v 0.1 2.5 -1.1
v 0.1 2.6 0
v 0.1 2.6 -0.1
v 0.1 2.6 -0.7
v 0.1 2.6 -0.8
v 0.1 2.7 -0.1
v 0.1 2.7 -0.7
v 0.1 2.7 -0.8
v 0.1 2.7 -0.9
v 0.1 2.7 -1
v 0.1 2.7 -1.1
v 0.1 2.8 -0.7
v 0.1 2.8 -0.8
v 0.1 2.8 -0.9
v 0.1 2.8 -1
v 0.1 2.8 -1.1
v 0.1 2.9 -0.8
v 0.1 2.9 -0.9
v 0.1 2.9 -1
v 0.1 2.9 -1.1
v 0.1 3 -0.8
v 0.1 3 -0.9
v 0.1 3 -1
v 0.1 3 -1.1
v 0.1 3.2 -0.8
v 0.1 3.2 -0.9
v 0.1 3.2 -1
v 0.1 3.2 -1.1
v 0.1 3.4 -0.9
v 0.1 3.4 -1
v 0.1 3.4 -1.1
v 0.1 3.5 -0.8
v 0.1 3.5 -0.9
v 0.1 3.6 -0.9
v 0.1 3.6 -1
v 0.2 2.5 -0.9
v 0.2 2.5 -1
v 0.2 2.6 -0.9
v 0.2 2.6 -1
v 0.2 2.7 -0.9
v 0.2 2.7 -1
v 0.2 3.4 -1
v 0.2 3.4 -1.1
v 0.2 3.5 -1
v 0.2 3.5 -1.1
v 0.2 2.5 0
v 0.2 2.5 -0.3
v 0.2 2.5 -0.4
v 0.2 2.5 -0.6
v 0.2 2.5 -1
v 0.2 2.5 -1.1
v 0.2 2.6 0
v 0.2 2.6 -0.1
v 0.2 2.6 -0.3
v 0.2 2.6 -0.4
v 0.2 2.6 -0.7
v 0.2 2.6 -0.8
v 0.2 2.6 -1
v 0.2 2.7 -0.1
v 0.2 2.7 -0.6
v 0.2 2.7 -0.7
v 0.2 2.7 -0.8
v 0.2 2.7 -1
v 0.2 2.7 -1.1
v 0.2 2.8 -0.7
v 0.2 2.8 -0.8
v 0.2 2.8 -0.9
v 0.2 2.8 -1
v 0.2 2.8 -1.1
v 0.2 2.9 -0.8
v 0.2 2.9 -0.9
v 0.2 2.9 -1
v 0.2 2.9 -1.1
v 0.2 3 -0.8
v 0.2 3 -0.9
v 0.2 3 -1
v 0.2 3 -1.1
v 0.2 3.2 -0.8
v 0.2 3.2 -0.9
v 0.2 3.2 -1
v 0.2 3.2 -1.1
v 0.2 3.3 -1
v 0.2 3.3 -1.1
v 0.2 3.4 -0.9
v 0.2 3.4 -1
v 0.2 3.5 -0.8
v 0.2 3.5 -0.9
v 0.2 3.5 -1
v 0.2 3.6 -0.9
v 0.2 3.6 -1
v 0.3 2.5 -0.3
v 0.3 2.5 -0.4
v 0.3 2.5 -0.6
v 0.3 2.5 -0.7
v 0.3 2.5 -0.8
v 0.3 2.5 -1
v 0.3 2.6 -0.3
v 0.3 2.6 -0.4
v 0.3 2.6 -0.8
v 0.3 2.6 -1
v 0.3 2.7 -0.6
v 0.3 2.7 -0.7
v 0.3 2.7 -0.8
v 0.3 2.7 -1
v 0.3 2.8 -0.8
v 0.3 2.8 -1
v 0.3 2.9 -0.9
v 0.3 2.9 -1
v 0.3 3 -0.8
v 0.3 3 -0.9
v 0.3 3 -1
v 0.3 3 -1.1
v 0.3 3.1 -0.8
v 0.3 3.1 -0.9
v 0.3 3.1 -1
v 0.3 3.1 -1.1
v 0.3 3.2 -0.8
v 0.3 3.2 -0.9
v 0.3 3.2 -1
v 0.3 3.2 -1.1
v 0.3 3.3 -1
v 0.3 3.3 -1.1
v 0.3 3.4 -0.9
v 0.3 3.4 -1
v 0.3 3.5 -1
v 0.3 3.5 -1.1
v 0.1 2.5 0
v 0.1 2.6 0
v 0.2 2.5 0
v 0.2 2.6 0
v 0.1 2.6 -0.1
v 0.1 2.7 -0.1
v 0.2 2.6 -0.1
v 0.2 2.7 -0.1
v 0.2 2.5 -0.3
v 0.2 2.6 -0.3
v 0.3 2.5 -0.3
v 0.3 2.6 -0.3
v 0.2 2.5 -0.6
v 0.2 2.7 -0.6
v 0.3 2.5 -0.6
v 0.3 2.7 -0.6
v 0.1 2.7 -0.7
v 0.1 2.8 -0.7
v 0.2 2.7 -0.7
v 0.2 2.8 -0.7
v 0 2.5 -0.8
v 0 2.7 -0.8
v 0 3 -0.8
v 0 3.1 -0.8
v 0 3.2 -0.8
v 0.1 2.5 -0.8
v 0.1 2.6 -0.8
v 0.1 2.7 -0.8
v 0.1 2.8 -0.8
v 0.1 2.9 -0.8
v 0.1 3 -0.8
v 0.1 3.1 -0.8
v 0.1 3.2 -0.8
v 0.1 3.5 -0.8
v 0.2 2.5 -0.8
v 0.2 2.6 -0.8
v 0.2 2.7 -0.8
v 0.2 2.8 -0.8
v 0.2 2.9 -0.8
v 0.2 3 -0.8
v 0.2 3.1 -0.8
v 0.2 3.2 -0.8
v 0.2 3.5 -0.8
v 0.3 2.5 -0.8
v 0.3 2.6 -0.8
v 0.3 2.7 -0.8
v 0.3 2.8 -0.8
v 0.3 3 -0.8
v 0.3 3.1 -0.8
v 0.3 3.2 -0.8
v 0 2.8 -0.9
v 0 2.9 -0.9
v 0 3 -0.9
v 0 3.2 -0.9
v 0 3.4 -0.9
v 0.1 2.8 -0.9
v 0.1 2.9 -0.9
v 0.1 3 -0.9
v 0.1 3.2 -0.9
v 0.1 3.4 -0.9
v 0.1 3.5 -0.9
v 0.1 3.6 -0.9
v 0.2 2.9 -0.9
v 0.2 3 -0.9
v 0.2 3.2 -0.9
v 0.2 3.4 -0.9
v 0.2 3.5 -0.9
v 0.2 3.6 -0.9
v 0.3 2.9 -0.9
v 0.3 3 -0.9
v 0.3 3.2 -0.9
v 0.3 3.4 -0.9
v 0.1 2.5 -1
v 0.1 2.7 -1
v 0.2 2.5 -1
v 0.2 2.6 -1
v 0.2 2.7 -1
v 0.2 3.4 -1
v 0.2 3.5 -1
v 0.3 3.4 -1
v 0.3 3.5 -1
v 0.2 2.5 -0.4
v 0.2 2.6 -0.4
v 0.3 2.5 -0.4
v 0.3 2.6 -0.4
v 0.1 2.5 -0.7
v 0.1 2.6 -0.7
v 0.2 2.6 -0.7
v 0.2 2.7 -0.7
v 0.3 2.5 -0.7
v 0.3 2.7 -0.7
v 0 2.5 -0.9
v 0 2.7 -0.9
v 0.1 2.5 -0.9
v 0.1 2.6 -0.9
v 0.1 2.7 -0.9
v 0.2 2.5 -0.9
v 0.2 2.6 -0.9
v 0.2 2.7 -0.9
v 0 2.8 -1
v 0 2.9 -1
v 0 3 -1
v 0 3.2 -1
v 0 3.4 -1
v 0.1 2.8 -1
v 0.1 2.9 -1
v 0.1 3 -1
v 0.1 3.2 -1
v 0.1 3.4 -1
v 0.1 3.6 -1
v 0.2 2.5 -1
v 0.2 2.6 -1
v 0.2 2.7 -1
v 0.2 2.8 -1
v 0.2 2.9 -1
v 0.2 3 -1
v 0.2 3.2 -1
v 0.2 3.3 -1
v 0.2 3.4 -1
v 0.2 3.5 -1
v 0.2 3.6 -1
v 0.3 2.5 -1
v 0.3 2.6 -1
v 0.3 2.7 -1
v 0.3 2.8 -1
v 0.3 2.9 -1
v 0.3 3 -1
v 0.3 3.2 -1
v 0.3 3.3 -1
v 0 3 -1.1
v 0 3.1 -1.1
v 0 3.2 -1.1
v 0.1 2.5 -1.1
v 0.1 2.7 -1.1
v 0.1 2.8 -1.1
v 0.1 2.9 -1.1
v 0.1 3 -1.1
v 0.1 3.1 -1.1
v 0.1 3.2 -1.1
v 0.1 3.4 -1.1
v 0.2 2.5 -1.1
v 0.2 2.7 -1.1
v 0.2 2.8 -1.1
v 0.2 2.9 -1.1
v 0.2 3 -1.1
v 0.2 3.1 -1.1
v 0.2 3.2 -1.1
v 0.2 3.3 -1.1
v 0.2 3.4 -1.1
v 0.2 3.5 -1.1
v 0.3 3 -1.1
v 0.3 3.1 -1.1
v 0.3 3.2 -1.1
v 0.3 3.3 -1.1
v 0.3 3.5 -1.1
v 0.1 2.5 0
v 0.2 2.5 0
v 0.2 2.5 -0.3
v 0.3 2.5 -0.3
v 0.2 2.5 -0.4
v 0.3 2.5 -0.4
v 0.2 2.5 -0.6
v 0.3 2.5 -0.6
v 0.1 2.5 -0.7
v 0.3 2.5 -0.7
v 0 2.5 -0.8
v 0.1 2.5 -0.8
v 0.2 2.5 -0.8
v 0.3 2.5 -0.8
v 0 2.5 -0.9
v 0.1 2.5 -0.9
v 0.2 2.5 -0.9
v 0.1 2.5 -1
v 0.2 2.5 -1
v 0.3 2.5 -1
v 0.1 2.5 -1.1
v 0.2 2.5 -1.1
v 0.1 2.6 -0.7
v 0.2 2.6 -0.7
v 0.1 2.6 -0.8
v 0.2 2.6 -0.8
v 0.1 2.7 -0.9
v 0.2 2.7 -0.9
v 0.1 2.7 -1
v 0.2 2.7 -1
v 0 2.8 -0.9
v 0.1 2.8 -0.9
v 0 2.8 -1
v 0.1 2.8 -1
v 0.2 2.9 -0.9
v 0.3 2.9 -0.9
v 0.1 2.9 -1
v 0.2 2.9 -1
v 0.3 2.9 -1
v 0.1 2.9 -1.1
v 0.2 2.9 -1.1
v 0 3 -0.8
v 0.1 3 -0.8
v 0.2 3 -0.8
v 0.3 3 -0.8
v 0 3 -0.9
v 0.1 3 -0.9
v 0.2 3 -0.9
v 0.3 3 -0.9
v 0 3 -1
v 0.1 3 -1
v 0.2 3 -1
v 0.3 3 -1
v 0 3 -1.1
v 0.1 3 -1.1
v 0.2 3 -1.1
v 0.3 3 -1.1
v 0.2 3.3 -1
v 0.3 3.3 -1
v 0.2 3.3 -1.1
v 0.3 3.3 -1.1
v 0.1 2.6 0
v 0.2 2.6 0
v 0.1 2.6 -0.1
v 0.2 2.6 -0.1
v 0.2 2.6 -0.3
v 0.3 2.6 -0.3
v 0.2 2.6 -0.4
v 0.3 2.6 -0.4
v 0.1 2.7 -0.1
v 0.2 2.7 -0.1
v 0.2 2.7 -0.6
v 0.3 2.7 -0.6
v 0.1 2.7 -0.7
v 0.2 2.7 -0.7
v 0.3 2.7 -0.7
v 0 2.7 -0.8
v 0.1 2.7 -0.8
v 0 2.7 -0.9
v 0.1 2.7 -0.9
v 0.1 2.8 -0.7
v 0.2 2.8 -0.7
v 0.1 2.8 -0.8
v 0.2 2.8 -0.8
v 0.3 2.8 -0.8
v 0.2 2.8 -0.9
v 0.1 2.8 -1
v 0.2 2.8 -1
v 0.3 2.8 -1
v 0.1 2.8 -1.1
v 0.2 2.8 -1.1
v 0 3.2 -0.8
v 0.1 3.2 -0.8
v 0.2 3.2 -0.8
v 0.3 3.2 -0.8
v 0 3.2 -0.9
v 0.1 3.2 -0.9
v 0.2 3.2 -0.9
v 0.3 3.2 -0.9
v 0 3.2 -1
v 0.1 3.2 -1
v 0.2 3.2 -1
v 0.3 3.2 -1
v 0 3.2 -1.1
v 0.1 3.2 -1.1
v 0.2 3.2 -1.1
v 0.3 3.2 -1.1
v 0 3.4 -0.9
v 0.1 3.4 -0.9
v 0.2 3.4 -0.9
v 0.3 3.4 -0.9
v 0 3.4 -1
v 0.1 3.4 -1
v 0.2 3.4 -1
v 0.3 3.4 -1
v 0.1 3.4 -1.1
v 0.2 3.4 -1.1
v 0.1 3.5 -0.8
v 0.2 3.5 -0.8
v 0.1 3.5 -0.9
v 0.2 3.5 -0.9
v 0.2 3.5 -1
v 0.3 3.5 -1
v 0.2 3.5 -1.1
v 0.3 3.5 -1.1
v 0.1 3.6 -0.9
v 0.2 3.6 -0.9
v 0.1 3.6 -1
v 0.2 3.6 -1

# faces
f 3/6/1 2/6/1 1/6/1
f 4/6/1 2/6/1 3/6/1
f 7/6/1 6/6/1 5/6/1
f 8/6/1 6/6/1 7/6/1
f 10/2/1 8/2/1 7/2/1
f 11/2/1 8/2/1 10/2/1
f 13/2/1 10/2/1 9/2/1
f 14/4/1 11/4/1 10/4/1
f 14/2/1 10/2/1 13/2/1
f 15/3/1 12/3/1 11/3/1
f 15/4/1 11/4/1 14/4/1
f 16/3/1 12/3/1 15/3/1
f 17/3/1 14/3/1 13/3/1
f 17/3/1 15/3/1 14/3/1
f 18/3/1 15/3/1 17/3/1
f 19/4/1 16/4/1 15/4/1
f 19/3/1 15/3/1 18/3/1
f 20/4/1 16/4/1 19/4/1
f 21/8/1 19/8/1 18/8/1
f 22/8/1 19/8/1 21/8/1
f 27/5/1 24/5/1 23/5/1
f 28/5/1 24/5/1 27/5/1
f 29/5/1 24/5/1 28/5/1
f 31/5/1 30/5/1 29/5/1
f 31/5/1 29/5/1 28/5/1
f 32/5/1 30/5/1 31/5/1
f 33/5/1 30/5/1 32/5/1
f 35/7/1 26/7/1 25/7/1
f 36/7/1 26/7/1 35/7/1
f 37/5/1 34/5/1 33/5/1
f 37/5/1 33/5/1 32/5/1
f 38/5/1 34/5/1 37/5/1
f 39/2/1 35/2/1 34/2/1
f 39/5/1 34/5/1 38/5/1
f 40/6/1 36/6/1 35/6/1
f 40/2/1 35/2/1 39/2/1
f 41/6/1 36/6/1 40/6/1
f 42/6/1 39/6/1 38/6/1
f 43/6/1 39/6/1 42/6/1
f 46/3/1 43/3/1 42/3/1
f 47/3/1 43/3/1 46/3/1
f 48/3/1 45/3/1 44/3/1
f 49/3/1 45/3/1 48/3/1
f 54/8/1 51/8/1 50/8/1
f 55/8/1 53/8/1 52/8/1
f 56/8/1 53/8/1 55/8/1
f 57/8/1 54/8/1 50/8/1
f 57/8/1 55/8/1 54/8/1
f 58/8/1 55/8/1 57/8/1
f 59/8/1 55/8/1 58/8/1
f 60/8/1 55/8/1 59/8/1
f 63/6/1 62/6/1 61/6/1
f 64/6/1 62/6/1 63/6/1
f 65/7/1 64/7/1 63/7/1
f 66/7/1 64/7/1 65/7/1
f 69/8/1 68/8/1 67/8/1
f 70/8/1 68/8/1 69/8/1
f 71/5/2 72/5/2 77/5/2
f 77/5/2 72/5/2 78/5/2
f 78/5/2 72/5/2 79/5/2
f 73/5/2 74/5/2 80/5/2
f 75/7/2 76/7/2 83/7/2
f 78/5/2 79/5/2 84/5/2
f 79/5/2 80/5/2 84/5/2
f 80/5/2 74/5/2 85/5/2
f 84/5/2 80/5/2 85/5/2
f 81/5/2 82/5/2 86/5/2
f 86/5/2 82/5/2 87/5/2
f 83/7/2 76/7/2 88/7/2
f 88/7/2 76/7/2 89/7/2
f 86/5/2 87/5/2 90/5/2
f 90/5/2 87/5/2 91/5/2
f 88/6/2 89/6/2 93/6/2
f 93/6/2 89/6/2 94/6/2
f 91/6/2 92/6/2 95/6/2
f 92/2/2 93/2/2 96/2/2
f 95/6/2 92/6/2 96/6/2
f 96/2/2 93/2/2 97/2/2
f 95/3/2 96/3/2 99/3/2
f 99/3/2 96/3/2 100/3/2
f 97/3/2 98/3/2 101/3/2
f 101/3/2 98/3/2 102/3/2
f 105/8/2 106/8/2 107/8/2
f 107/8/2 106/8/2 108/8/2
f 103/8/2 104/8/2 109/8/2
f 103/8/2 109/8/2 111/8/2
f 109/8/2 110/8/2 111/8/2
f 111/8/2 110/8/2 112/8/2
f 112/8/2 110/8/2 113/8/2
f 112/8/2 113/8/2 114/8/2
f 114/8/2 113/8/2 115/8/2
f 116/5/2 117/5/2 122/5/2
f 122/5/2 117/5/2 123/5/2
f 120/6/2 121/6/2 124/6/2
f 124/6/2 121/6/2 125/6/2
f 118/5/2 119/5/2 126/5/2
f 126/5/2 119/5/2 127/5/2
f 124/7/2 125/7/2 128/7/2
f 128/7/2 125/7/2 129/7/2
f 128/6/2 129/6/2 130/6/2
f 130/6/2 129/6/2 131/6/2
f 132/2/2 133/2/2 135/2/2
f 135/2/2 133/2/2 136/2/2
f 134/4/2 135/4/2 138/4/2
f 135/3/2 136/3/2 139/3/2
f 138/4/2 135/4/2 139/4/2
f 136/4/2 137/4/2 140/4/2
f 139/3/2 136/3/2 140/3/2
f 140/4/2 137/4/2 141/4/2
f 138/1/2 139/1/2 142/1/2
f 139/2/2 140/2/2 143/2/2
f 142/1/2 139/1/2 143/1/2
f 140/1/2 141/1/2 144/1/2
f 143/2/2 140/2/2 144/2/2
f 144/1/2 141/1/2 145/1/2
f 143/8/2 144/8/2 146/8/2
f 143/8/2 146/8/2 148/8/2
f 146/8/2 147/8/2 148/8/2
f 148/8/2 147/8/2 149/8/2
f 149/8/2 147/8/2 150/8/2
f 150/8/2 147/8/2 151/8/2
f 154/5/3 153/5/3 152/5/3
f 155/5/3 153/5/3 154/5/3
f 158/5/3 157/5/3 156/5/3
f 159/5/3 157/5/3 158/5/3
f 162/5/3 161/5/3 160/5/3
f 163/5/3 161/5/3 162/5/3
f 166/5/3 165/5/3 164/5/3
f 167/5/3 165/5/3 166/5/3
f 170/5/3 169/5/3 168/5/3
f 171/5/3 169/5/3 170/5/3
f 177/6/3 173/6/3 172/6/3
f 178/6/3 173/6/3 177/6/3
f 179/6/3 173/6/3 178/6/3
f 182/2/3 175/2/3 174/2/3
f 183/3/3 176/3/3 175/3/3
f 183/2/3 175/2/3 182/2/3
f 184/3/3 176/3/3 183/3/3
f 186/7/3 178/7/3 177/7/3
f 187/7/3 178/7/3 186/7/3
f 189/6/3 181/6/3 180/6/3
f 190/3/3 182/3/3 181/3/3
f 190/6/3 181/6/3 189/6/3
f 191/2/3 183/2/3 182/2/3
f 191/3/3 182/3/3 190/3/3
f 192/4/3 184/4/3 183/4/3
f 192/2/3 183/2/3 191/2/3
f 193/8/3 185/8/3 184/8/3
f 193/4/3 184/4/3 192/4/3
f 194/8/3 185/8/3 193/8/3
f 195/6/3 187/6/3 186/6/3
f 196/7/3 188/7/3 187/7/3
f 196/6/3 187/6/3 195/6/3
f 197/6/3 189/6/3 188/6/3
f 197/7/3 188/7/3 196/7/3
f 198/6/3 189/6/3 197/6/3
f 199/4/3 192/4/3 191/4/3
f 200/1/3 193/1/3 192/1/3
f 200/4/3 192/4/3 199/4/3
f 201/1/3 193/1/3 200/1/3
f 207/6/3 203/6/3 202/6/3
f 208/2/3 204/2/3 203/2/3
f 208/6/3 203/6/3 207/6/3
f 209/2/3 204/2/3 208/2/3
f 210/8/3 206/8/3 205/8/3
f 211/8/3 206/8/3 210/8/3
f 218/8/3 213/8/3 212/8/3
f 219/8/3 213/8/3 218/8/3
f 220/2/3 215/2/3 214/2/3
f 221/2/3 215/2/3 220/2/3
f 222/8/3 217/8/3 216/8/3
f 223/8/3 217/8/3 222/8/3
f 226/7/3 225/7/3 224/7/3
f 227/7/3 225/7/3 226/7/3
f 228/7/3 225/7/3 227/7/3
f 231/8/3 230/8/3 229/8/3
f 232/8/3 230/8/3 231/8/3
f 233/5/4 234/5/4 235/5/4
f 235/5/4 234/5/4 236/5/4
f 237/5/4 238/5/4 239/5/4
f 237/5/4 239/5/4 241/5/4
f 239/5/4 240/5/4 241/5/4
f 241/5/4 240/5/4 242/5/4
f 243/6/4 244/6/4 245/6/4
f 245/6/4 244/6/4 246/6/4
f 246/6/4 244/6/4 247/6/4
f 245/7/4 246/7/4 248/7/4
f 246/5/4 247/5/4 249/5/4
f 248/7/4 246/7/4 249/7/4
f 249/5/4 247/5/4 250/5/4
f 251/6/4 252/6/4 256/6/4
f 252/2/4 253/2/4 257/2/4
f 256/6/4 252/6/4 257/6/4
f 257/2/4 253/2/4 258/2/4
f 254/8/4 255/8/4 259/8/4
f 259/8/4 255/8/4 260/8/4
f 256/2/4 257/2/4 265/2/4
f 265/2/4 257/2/4 266/2/4
f 260/8/4 261/8/4 270/8/4
f 270/8/4 261/8/4 271/8/4
f 271/8/4 261/8/4 272/8/4
f 262/6/4 263/6/4 273/6/4
f 263/7/4 264/7/4 274/7/4
f 273/6/4 263/6/4 274/6/4
f 264/6/4 265/6/4 275/6/4
f 274/7/4 264/7/4 275/7/4
f 275/6/4 265/6/4 276/6/4
f 266/2/4 267/2/4 277/2/4
f 277/2/4 267/2/4 278/2/4
f 268/8/4 269/8/4 279/8/4
f 279/8/4 269/8/4 280/8/4
f 281/3/4 282/3/4 288/3/4
f 282/4/4 283/4/4 289/4/4
f 288/3/4 282/3/4 289/3/4
f 289/4/4 283/4/4 290/4/4
f 284/7/4 285/7/4 292/7/4
f 285/6/4 286/6/4 293/6/4
f 292/7/4 285/7/4 293/7/4
f 293/6/4 286/6/4 294/6/4
f 287/3/4 288/3/4 295/3/4
f 288/2/4 289/2/4 296/2/4
f 295/3/4 288/3/4 296/3/4
f 289/2/4 290/2/4 296/2/4
f 296/2/4 290/2/4 297/2/4
f 290/8/4 291/8/4 298/8/4
f 297/2/4 290/2/4 298/2/4
f 298/8/4 291/8/4 299/8/4
f 299/8/4 291/8/4 300/8/4
f 296/4/4 297/4/4 302/4/4
f 297/1/4 298/1/4 303/1/4
f 302/4/4 297/4/4 303/4/4
f 303/1/4 298/1/4 304/1/4
f 300/8/4 301/8/4 305/8/4
f 299/8/4 300/8/4 305/8/4
f 305/8/4 301/8/4 306/8/4
f 309/5/5 308/5/5 307/5/5
f 311/5/5 309/5/5 307/5/5
f 311/5/5 310/5/5 309/5/5
f 312/5/5 310/5/5 311/5/5
f 313/5/5 311/5/5 307/5/5
f 315/5/5 313/5/5 307/5/5
f 315/5/5 314/5/5 313/5/5
f 316/5/5 314/5/5 315/5/5
f 321/6/5 318/6/5 317/6/5
f 322/7/5 319/7/5 318/7/5
f 322/6/5 318/6/5 321/6/5
f 323/6/5 320/6/5 319/6/5
f 323/7/5 319/7/5 322/7/5
f 325/6/5 320/6/5 323/6/5
f 326/6/5 320/6/5 325/6/5
f 327/7/5 325/7/5 324/7/5
f 328/7/5 325/7/5 327/7/5
f 331/5/5 330/5/5 329/5/5
f 332/5/5 330/5/5 331/5/5
f 335/2/5 334/2/5 333/2/5
f 336/2/5 334/2/5 335/2/5
f 339/6/5 338/6/5 337/6/5
f 340/6/5 338/6/5 339/6/5
f 344/2/5 342/2/5 341/2/5
f 345/2/5 342/2/5 344/2/5
f 346/3/5 344/3/5 343/3/5
f 347/3/5 344/3/5 346/3/5
f 352/2/5 349/2/5 348/2/5
f 353/2/5 349/2/5 352/2/5
f 354/4/5 351/4/5 350/4/5
f 355/4/5 351/4/5 354/4/5
f 360/3/5 357/3/5 356/3/5
f 361/3/5 357/3/5 360/3/5
f 362/4/5 359/4/5 358/4/5
f 363/4/5 359/4/5 362/4/5
f 366/8/5 365/8/5 364/8/5
f 367/8/5 365/8/5 366/8/5
f 368/5/6 369/5/6 370/5/6
f 370/5/6 369/5/6 371/5/6
f 372/5/6 373/5/6 374/5/6
f 374/5/6 373/5/6 375/5/6
f 376/5/6 377/5/6 378/5/6
f 376/5/6 378/5/6 380/5/6
f 378/5/6 379/5/6 380/5/6
f 380/5/6 379/5/6 381/5/6
f 381/5/6 379/5/6 382/5/6
f 383/6/6 384/6/6 385/6/6
f 385/6/6 384/6/6 386/6/6
f 387/5/6 388/5/6 389/5/6
f 389/5/6 388/5/6 390/5/6
f 390/6/6 391/6/6 392/6/6
f 392/6/6 391/6/6 394/6/6
f 394/6/6 391/6/6 395/6/6
f 393/6/6 394/6/6 396/6/6
f 396/6/6 394/6/6 397/6/6
f 398/3/6 399/3/6 402/3/6
f 402/3/6 399/3/6 403/3/6
f 400/1/6 401/1/6 404/1/6
f 404/1/6 401/1/6 405/1/6
f 406/4/6 407/4/6 410/4/6
f 410/4/6 407/4/6 411/4/6
f 408/1/6 409/1/6 412/1/6
f 412/1/6 409/1/6 413/1/6
f 414/8/6 415/8/6 418/8/6
f 418/8/6 415/8/6 419/8/6
f 416/8/6 417/8/6 420/8/6
f 420/8/6 417/8/6 421/8/6
f 419/8/6 420/8/6 422/8/6
f 422/8/6 420/8/6 423/8/6
f 424/8/6 425/8/6 426/8/6
f 426/8/6 425/8/6 427/8/6
f 428/8/6 429/8/6 430/8/6
f 430/8/6 429/8/6 431/8/6
f 432/8/6 433/8/6 434/8/6
f 434/8/6 433/8/6 435/8/6
